:SAMPLES-PER-SECOND 30
:FULLY-SPECIFIED
:DEGREES
64
root  63.4355 37.5903 24.4055 -48.0586 -85.1086 51.2807
RightUpLeg  -8.5386 -2.78028 -9.72901
RightLeg  58.3866 -3.61554 -6.8409
RightFoot  1.57324 -0.308774 2.73143
RightToes  1.16414e-010 0 -3.6325e-017
Spine  13.8574 2.00628 4.01046
Spine1  2.78067 4.80622 -10.1352
HEad  -24.6085 -3.24783 1.56689
LeftShoulder1  8.29585 -11.9179 -46.9296
LeftArm  -12.7544 32.2857 -26.9772
LeftForeArm  169.291 -65.9461 -157.963
LeftHand  -0.244104 0.0205437 5.32207
RightShoulder  6.71074 10.4528 41.8288
RightArm  11.4905 -15.4763 33.4032
RightForeArm  94.7441 80.0017 91.8123
RightHand  -0.0189342 -7.75886 -1.37234
LeftUpLeg  -19.0489 21.7224 -5.54425
LeftLeg  38.7236 -11.2457 -9.17758
LeftFoot  -18.6194 0.487819 5.94209
LeftToes  9.04034e-010 7.59002e-011 -1.12606e-011
65
root  62.1199 37.21 24.611 -34.5297 -84.3583 35.4299
RightUpLeg  -12.2324 -1.66402 -8.60678
RightLeg  67.7323 -3.7942 -10.7955
RightFoot  0.895216 -0.0896678 0.876315
RightToes  1.16414e-010 0 -3.6325e-017
Spine  17.6333 0.609715 2.38588
Spine1  2.72127 2.74529 -7.43219
HEad  -27.0018 -2.29991 0.885514
LeftShoulder1  8.63776 -12.0425 -48.5001
LeftArm  -11.0644 25.3848 -24.6763
LeftForeArm  166.379 -68.5022 -154.868
LeftHand  -0.244104 0.0205437 5.32207
RightShoulder  6.95898 10.2972 43.9997
RightArm  5.42846 -19.7151 33.9738
RightForeArm  67.8372 79.0662 64.2883
RightHand  0.0138872 -6.24227 -5.88361
LeftUpLeg  -14.9225 21.2826 -3.08223
LeftLeg  41.4376 -11.6369 -10.4437
LeftFoot  -22.5498 0.7312 6.0871
LeftToes  9.04034e-010 7.59002e-011 -1.12606e-011
66
root  60.6279 37.1276 24.8503 -20.3348 -83.4461 20.1217
RightUpLeg  -16.6829 -1.43716 -6.91944
RightLeg  72.7504 -3.42367 -13.2045
RightFoot  -1.27813 -0.0329935 0.285638
RightToes  1.16414e-010 0 -3.6325e-017
Spine  19.2162 -0.575606 0.478279
Spine1  3.28045 0.456372 -3.35479
HEad  -28.8516 -0.796167 -0.0105861
LeftShoulder1  8.74003 -12.048 -49.0584
LeftArm  -8.41848 19.0703 -23.7083
LeftForeArm  166.97 -69.5238 -153.648
LeftHand  -0.244104 0.0205437 5.32207
RightShoulder  6.8788 9.925 44.7259
RightArm  0.32989 -26.6589 33.33
RightForeArm  68.1909 79.1112 69.1581
RightHand  -0.0155751 -5.40053 -10.1492
LeftUpLeg  -10.418 21.6642 -0.26714
LeftLeg  41.2893 -13.8072 -12.2903
LeftFoot  -24.8053 0.833416 5.78534
LeftToes  9.04034e-010 7.59002e-011 -1.12606e-011
67
root  58.9199 37.3872 25.1674 -6.38799 -83.0572 6.64293
RightUpLeg  -21.8705 -1.32656 -4.69414
RightLeg  73.0354 -3.40156 -13.464
RightFoot  -3.30793 -0.0688507 0.675701
RightToes  1.16414e-010 0 -3.6325e-017
Spine  18.5468 -1.71615 -1.26814
Spine1  3.27851 -1.98594 1.12087
HEad  -28.7985 1.80909 -1.12055
LeftShoulder1  8.44895 -11.8811 -47.9269
LeftArm  -5.7585 16.4999 -25.0281
LeftForeArm  171.789 -67.5094 -156.609
LeftHand  -0.244104 0.0205437 5.32207
RightShoulder  6.26321 9.22483 42.8521
RightArm  0.720034 -35.2449 30.8941
RightForeArm  96.0911 79.2136 103.357
RightHand  -0.0639151 -4.89824 -11.5304
LeftUpLeg  -6.06228 22.5471 2.52608
LeftLeg  38.2067 -16.1551 -12.8964
LeftFoot  -24.9782 0.840232 5.78635
LeftToes  9.04034e-010 7.59002e-011 -1.12606e-011
68
root  57.0049 37.9093 25.5499 11.5916 -83.2922 -9.54118
RightUpLeg  -26.99 -1.44806 -1.85167
RightLeg  69.0674 -4.417 -13.3435
RightFoot  -5.14003 -0.140345 1.96908
RightToes  1.16414e-010 0 -3.6325e-017
Spine  15.7033 -3.06085 -1.70675
Spine1  3.10431 -4.22826 4.80469
HEad  -27.2191 3.77212 -2.29424
LeftShoulder1  8.03525 -11.6943 -46.106
LeftArm  -3.29759 16.8937 -27.5903
LeftForeArm  175.637 -64.1672 -160.286
LeftHand  -0.244104 0.0205437 5.32207
RightShoulder  5.39237 8.42417 39.1094
RightArm  5.92913 -42.8044 26.8481
RightForeArm  123.574 75.5002 133.947
RightHand  -0.0381156 -5.18759 -10.6604
LeftUpLeg  -2.3191 23.5942 5.20308
LeftLeg  33.2327 -18.0391 -12.0121
LeftFoot  -23.1566 0.626827 4.70252
LeftToes  9.04034e-010 7.59002e-011 -1.12606e-011
69
root  54.9324 38.5413 25.9356 33.7409 -83.6359 -29.4723
RightUpLeg  -30.7006 -1.82797 1.41966
RightLeg  61.2857 -6.3441 -12.8852
RightFoot  -6.91409 -0.176464 3.31598
RightToes  1.16414e-010 0 -3.6325e-017
Spine  11.6573 -4.22215 -0.51187
Spine1  3.35034 -5.73235 6.96728
HEad  -24.0762 7.28289 -3.51319
LeftShoulder1  7.74917 -11.5834 -44.7426
LeftArm  -0.475467 17.3988 -29.7817
LeftForeArm  176.605 -61.9282 -162.121
LeftHand  -0.244104 0.0205437 5.32207
RightShoulder  4.76115 7.98221 35.4965
RightArm  11.1179 -48.2706 22.7102
RightForeArm  136.331 71.4089 146.457
RightHand  0.0625923 -6.55454 -8.93101
LeftUpLeg  1.19073 25.6803 8.17243
LeftLeg  27.948 -20.6646 -11.1651
LeftFoot  -18.7652 0.168533 0.516144
LeftToes  9.04034e-010 7.59002e-011 -1.12606e-011
